<svg width="24" height="24" viewBox="0 0 27 28" fill="none" xmlns="http://www.w3.org/2000/svg">
<g clip-path="url(#clip0)">
<path d="M2.24 25.2628C2.46552 25.4402 2.77168 25.4758 3.03194 25.3549L25.9851 14.6909C26.2539 14.5659 26.4258 14.2964 26.4258 14C26.4258 13.7036 26.2539 13.4341 25.9851 13.3092L3.03194 2.64514C2.77168 2.52423 2.46552 2.55983 2.24 2.73731C2.01443 2.91479 1.90769 3.20384 1.96406 3.48532L3.40757 10.7028L0.648924 13.4614C0.500186 13.6101 0.425842 13.8051 0.425842 14C0.425842 14.195 0.500186 14.3899 0.648975 14.5386L3.40761 17.2973L1.96411 24.5147C1.90799 24.7948 2.01342 25.0845 2.24 25.2628ZM2.26478 14L4.44076 11.8241L11.005 14L4.44081 16.176L2.26478 14ZM4.89449 17.6306L13.6655 14.7231C13.9772 14.6198 14.1876 14.3284 14.1876 14C14.1876 13.6717 13.9772 13.3803 13.6655 13.277L4.89449 10.3695L3.75257 4.65979L23.8563 14L3.75257 23.3403L4.89449 17.6306Z" fill="white" fill-opacity="0.5"/>
</g>
<defs>
<clipPath id="clip0">
<rect width="24" height="24" fill="white" transform="translate(26.4258 0.574219) rotate(90)"/>
</clipPath>
</defs>
</svg>
