<svg xmlns="http://www.w3.org/2000/svg" width="24" height="24" viewBox="0 0 16 16">
                    <path fillRule="evenodd" fill="#dbdbdb"
                        d="M7,2 C9.76142375,2 12,4.23857625 12,7 C12,8.01910722 11.6951083,8.96700318 11.1715651,9.75744781 L13.7071068,12.2928932 C14.0976311,12.6834175 14.0976311,13.3165825 13.7071068,13.7071068 C13.3466228,14.0675907 12.7793918,14.0953203 12.3871006,13.7902954 L12.2928932,13.7071068 L9.75744781,11.1715651 C8.96700318,11.6951083 8.01910722,12 7,12 C4.23857625,12 2,9.76142375 2,7 C2,4.23857625 4.23857625,2 7,2 Z M7,4 C5.34314575,4 4,5.34314575 4,7 C4,8.65685425 5.34314575,10 7,10 C8.65685425,10 10,8.65685425 10,7 C10,5.34314575 8.65685425,4 7,4 Z" />
</svg>